:version 1.10
:name ASF
:units
  mass 1
  length 1
  angle deg
:documentation
  ASF file generated by Kaydara
:root
  axis xyz
  order  tx ty tz rx ry rz
  position 0 0 0
  orientation 0 0 0
:bonedata
  begin
    id 1
    name LeftUpLegDummy
    direction 1 -2.30186e-007 -8.31532e-007
    length 2.93387
    axis 0 0 0 xyz
  end
  begin
    id 2
    name LeftUpLeg
    direction -1.82929e-007 -1 -1.48925e-009
    length 17.3336
    axis -3.48766 0.00143442 -0.000521554 xyz
    dof rx ry rz
  end
  begin
    id 3
    name LeftLeg
    direction -1.82929e-007 -1 -5.23717e-011
    length 14.9995
    axis 3.68178 -0.00654042 -0.000282425 xyz
    dof rx ry rz
  end
  begin
    id 4
    name LeftFoot
    direction 8.31532e-007 -4.54534e-011 1
    length 6.74421
    axis 1.87234e-006 4.66016e-005 -5.96866e-006 xyz
    dof rx ry rz
  end
  begin
    id 5
    name LeftToes
    direction 0.00818058 -0.00485161 0.999955
    length 3.85048
    axis 1.06247e-005 4.65869e-005 -5.96999e-006 xyz
    dof rx ry rz
  end
  begin
    id 6
    name SpineDummy
    direction -5.8607e-008 0.943407 -0.331637
    length 5.93572
    axis 0 0 0 xyz
  end
  begin
    id 7
    name Spine
    direction -1.04988e-007 0.999988 0.00495137
    length 10.1015
    axis -0.001389 0.000121417 6.61666e-006 xyz
    dof rx ry rz
  end
  begin
    id 8
    name Spine1
    direction 0 0 0
    length 0
    axis -0.001389 0.00012144 6.56766e-006 xyz
    dof rx ry rz
  end
  begin
    id 9
    name RightShoulderDummy
    direction -0.98348 0.17941 -0.0240696
    length 3.59882
    axis -0.001389 0.00012144 6.56766e-006 xyz
  end
  begin
    id 10
    name RightShoulder
    direction -0.978693 0.204882 0.0135597
    length 2.70001
    axis 0.215806 0.000203631 -0.00679732 xyz
    dof rx ry rz
  end
  begin
    id 11
    name RightArm
    direction -1 3.85509e-006 8.31394e-007
    length 10.2459
    axis -23.2009 -0.134239 -0.964098 xyz
    dof rx ry rz
  end
  begin
    id 12
    name RightForeArm
    direction -1 3.85569e-006 8.3129e-007
    length 8.16799
    axis -9.92322 0.0658061 0.17887 xyz
    dof rx ry rz
  end
  begin
    id 13
    name RightHand
    direction -0.992843 -0.0414604 0.112003
    length 5.28593
    axis -0.00960638 0.00330669 -0.185225 xyz
    dof rx ry rz
  end
  begin
    id 14
    name LeftShoulder1Dummy
    direction 0.983523 0.179172 -0.0240748
    length 3.59866
    axis -0.001389 0.00012144 6.56766e-006 xyz
  end
  begin
    id 15
    name LeftShoulder1
    direction 0.978627 0.205195 0.0135605
    length 2.70019
    axis -0.001389 0.00012144 6.57583e-006 xyz
    dof rx ry rz
  end
  begin
    id 16
    name LeftArm
    direction 1 3.51895e-006 -8.60188e-007
    length 10.2459
    axis -23.1894 0.134785 0.967513 xyz
    dof rx ry rz
  end
  begin
    id 17
    name LeftForeArm
    direction 1 3.51921e-006 -7.32029e-007
    length 8.16799
    axis -9.91835 -0.0656957 -0.177789 xyz
    dof rx ry rz
  end
  begin
    id 18
    name LeftHand
    direction 0.992938 -0.0411636 0.11126
    length 5.32135
    axis -0.00960237 -0.00340661 0.185177 xyz
    dof rx ry rz
  end
  begin
    id 19
    name HEadDummy
    direction 1.01974e-006 0.999861 -0.016675
    length 2.99946
    axis -0.001389 0.00012144 6.56766e-006 xyz
  end
  begin
    id 20
    name HEad
    direction -0.0222689 0.980941 0.193023
    length 5.12695
    axis -0.001389 0.00012144 6.56766e-006 xyz
    dof rx ry rz
  end
  begin
    id 21
    name RightUpLegDummy
    direction -1 2.30186e-007 8.31532e-007
    length 2.93387
    axis 0 0 0 xyz
  end
  begin
    id 22
    name RightUpLeg
    direction -1.82966e-007 -1 1.56832e-007
    length 17.3336
    axis -3.4909 -0.000906625 0.00028951 xyz
    dof rx ry rz
  end
  begin
    id 23
    name RightLeg
    direction -1.82786e-007 -1 -1.80317e-007
    length 14.9995
    axis 3.68513 0.0193739 -0.131021 xyz
    dof rx ry rz
  end
  begin
    id 24
    name RightFoot
    direction 8.31721e-007 -4.63324e-011 1
    length 6.74421
    axis 4.81691e-005 -0.120479 -0.188785 xyz
    dof rx ry rz
  end
  begin
    id 25
    name RightToes
    direction 0.00124746 -0.014064 0.9999
    length 3.85082
    axis 0.000481921 0.542163 -0.142575 xyz
    dof rx ry rz
  end
:hierarchy
  begin
    root LeftUpLegDummy SpineDummy RightUpLegDummy
    LeftUpLegDummy LeftUpLeg
    LeftUpLeg LeftLeg
    LeftLeg LeftFoot
    LeftFoot LeftToes
    SpineDummy Spine
    Spine Spine1
    Spine1 RightShoulderDummy LeftShoulder1Dummy HEadDummy
    RightShoulderDummy RightShoulder
    RightShoulder RightArm
    RightArm RightForeArm
    RightForeArm RightHand
    LeftShoulder1Dummy LeftShoulder1
    LeftShoulder1 LeftArm
    LeftArm LeftForeArm
    LeftForeArm LeftHand
    HEadDummy HEad
    RightUpLegDummy RightUpLeg
    RightUpLeg RightLeg
    RightLeg RightFoot
    RightFoot RightToes
  end

:SAMPLES-PER-SECOND 30
:FULLY-SPECIFIED
:DEGREES
246
root  3.29046 34.1076 -3.84729 3.65283 28.7109 -0.054445
LeftUpLeg  -5.0633 3.31423 8.62673
LeftLeg  8.56443 0.791847 0.066654
LeftFoot  5.04151 -0.00860577 0.0446227
LeftToes  -25.5244 8.556e-007 1.17171e-007
Spine  1.45312 0.18892 2.08425
Spine1  2.85454 0.334227 4.11241
RightShoulder  0.0425904 6.17109 6.51672
RightArm  -35.2328 -21.5887 64.9908
RightForeArm  29.8025 13.4031 2.40412
RightHand  1.20547 -13.5088 -9.77732
LeftShoulder1  0.00908905 -1.04289 -8.34339
LeftArm  -17.3753 19.8112 -70.338
LeftForeArm  29.9601 -13.2337 -2.3715
LeftHand  0.116468 6.11358 1.80871
HEad  -7.92493 1.33513 -4.64463
RightUpLeg  -3.90166 -4.09196 -3.47641
RightLeg  10.3415 9.7772 1.13862
RightFoot  -0.780865 -0.0115511 -0.12703
RightToes  -35.5652 -0.18406 -0.28822
247
root  3.5022 34.1233 -3.93155 3.05131 28.3199 0.206803
LeftUpLeg  -4.77781 3.05975 8.01055
LeftLeg  9.80118 1.36715 0.145428
LeftFoot  4.25907 -0.0117748 0.0830115
LeftToes  -24.71 8.556e-007 1.17171e-007
Spine  1.62753 0.253887 1.86267
Spine1  3.21087 0.451466 3.70863
RightShoulder  0.031818 6.19575 6.37655
RightArm  -35.5695 -21.9941 65.7071
RightForeArm  29.6348 13.4061 2.40477
RightHand  1.15157 -13.7003 -9.1897
LeftShoulder1  0.010771 -1.00879 -8.32543
LeftArm  -17.6875 18.3133 -70.0819
LeftForeArm  29.9415 -13.4918 -2.41945
LeftHand  0.12677 6.07044 2.01821
HEad  -5.74985 0.461833 -5.5054
RightUpLeg  -3.57008 -3.6297 -4.12932
RightLeg  11.1407 9.70138 1.26649
RightFoot  -0.923991 -0.0101546 -0.149439
RightToes  -35.8871 -0.186489 -0.290839
248
root  3.69969 34.1356 -4.00746 2.5694 28.0968 0.500199
LeftUpLeg  -4.4945 3.06283 7.3927
LeftLeg  10.7108 1.5874 0.19446
LeftFoot  3.6555 -0.0128154 0.0904103
LeftToes  -23.8148 8.556e-007 1.17171e-007
Spine  1.75035 0.249359 1.65039
Spine1  3.45937 0.435569 3.32516
RightShoulder  0.0189351 6.1309 6.26022
RightArm  -33.9408 -22.4702 66.3271
RightForeArm  28.2818 14.616 2.63164
RightHand  1.05096 -14.0551 -8.13631
LeftShoulder1  0.0123747 -0.913234 -8.44361
LeftArm  -17.5293 16.9149 -69.7906
LeftForeArm  29.4397 -14.1302 -2.53878
LeftHand  0.133614 6.02242 2.16713
HEad  -3.47953 -0.113573 -6.40317
RightUpLeg  -3.22029 -3.16461 -4.76842
RightLeg  11.7113 9.49731 1.33588
RightFoot  -0.986301 -0.00965607 -0.154068
RightToes  -36.3782 -0.190537 -0.293762
249
root  3.88862 34.1367 -4.07659 2.33082 27.9839 0.726535
LeftUpLeg  -4.29524 3.17107 6.85875
LeftLeg  11.1863 1.62297 0.212476
LeftFoot  3.18315 -0.0126897 0.0816449
LeftToes  -23.1892 8.556e-007 1.17171e-007
Spine  1.8025 0.205264 1.47378
Spine1  3.5532 0.342785 2.99435
RightShoulder  0.0147072 5.89743 6.1499
RightArm  -31.2957 -23.2753 67.0065
RightForeArm  26.0312 18.7631 3.42945
RightHand  0.932753 -14.095 -7.16095
LeftShoulder1  0.0139693 -0.895399 -8.60218
LeftArm  -16.9728 15.7325 -69.5173
LeftForeArm  28.4772 -15.1847 -2.73748
LeftHand  0.142671 5.84509 2.43384
HEad  -1.10566 -0.762971 -7.1259
RightUpLeg  -3.09375 -2.77638 -5.30928
RightLeg  12.2125 9.25284 1.38399
RightFoot  -1.05802 -0.00883569 -0.159177
RightToes  -36.9853 -0.194859 -0.297467
250
root  4.06812 34.1306 -4.15619 2.30123 27.8765 1.05293
LeftUpLeg  -3.96337 3.27085 6.25327
LeftLeg  10.9931 1.62266 0.206893
LeftFoot  2.99741 -0.0126552 0.0761336
LeftToes  -22.86 8.556e-007 1.17171e-007
Spine  1.81255 0.140704 1.24644
Spine1  3.55626 0.212604 2.5537
RightShoulder  0.014363 5.32604 6.01014
RightArm  -27.4245 -23.8852 67.6648
RightForeArm  21.8935 24.7512 4.6585
RightHand  0.902324 -14.4409 -6.74017
LeftShoulder1  0.0156237 -0.786614 -8.86515
LeftArm  -15.9887 14.655 -69.0954
LeftForeArm  27.2631 -16.6487 -3.01673
LeftHand  0.148435 5.65035 2.63403
HEad  1.2053 -1.51324 -7.69413
RightUpLeg  -3.13186 -2.3346 -5.9076
RightLeg  12.6696 8.91815 1.40676
RightFoot  -1.16901 -0.00742958 -0.168174
RightToes  -37.4433 -0.198388 -0.300382
251
root  4.23234 34.1268 -4.24036 2.2768 27.6405 1.2971
LeftUpLeg  -3.43665 3.7391 5.77569
LeftLeg  10.3123 1.33952 0.154504
LeftFoot  2.97474 -0.0118607 0.0605243
LeftToes  -22.5195 8.556e-007 1.17171e-007
Spine  1.80515 0.0765043 1.02732
Spine1  3.52563 0.0888817 2.11985
RightShoulder  0.0155155 4.79258 5.67866
RightArm  -23.3086 -24.2271 68.3481
RightForeArm  18.9074 32.3772 6.41744
RightHand  0.910089 -14.6546 -6.69585
LeftShoulder1  0.0173655 -0.738624 -9.08654
LeftArm  -15.2303 13.8476 -68.7668
LeftForeArm  26.3682 -18.3988 -3.3562
LeftHand  0.148849 5.30405 2.839
HEad  3.51406 -2.10462 -8.2059
RightUpLeg  -3.20206 -1.7158 -6.40181
RightLeg  12.9944 8.55049 1.39867
RightFoot  -1.18642 -0.00662493 -0.161939
RightToes  -37.9354 -0.202449 -0.303165
252
root  4.3836 34.1235 -4.34383 2.17726 27.2337 1.53
LeftUpLeg  -2.76011 4.29216 5.31821
LeftLeg  9.4334 1.13889 0.113616
LeftFoot  3.07667 -0.0114284 0.0521311
LeftToes  -22.2987 8.556e-007 1.17171e-007
Spine  1.81726 0.0293844 0.81005
Spine1  3.53321 0.00631781 1.68029
RightShoulder  0.0175459 4.33251 5.34344
RightArm  -19.2196 -24.0943 68.7598
RightForeArm  17.7774 41.4996 8.98263
RightHand  0.896924 -14.644 -6.59897
LeftShoulder1  0.0183549 -0.635002 -9.23121
LeftArm  -14.6918 13.1527 -68.6291
LeftForeArm  25.7196 -20.0969 -3.69242
LeftHand  0.150991 4.94888 3.11864
HEad  5.82985 -2.45859 -8.57696
RightUpLeg  -3.25622 -1.14147 -6.90522
RightLeg  13.2659 8.41679 1.41773
RightFoot  -1.11748 -0.00589799 -0.147918
RightToes  -38.4744 -0.206412 -0.306343
